<svg version="1" xmlns="http://www.w3.org/2000/svg" width="3200" height="3200" viewBox="0 0 2400.000000 2400.000000"><path d="M243.5 26c-3.8.4-8.7 1.1-10.7 1.4-2.1.3-5.5.9-7.5 1.2-11.9 1.9-30.5 6.9-42.7 11.6-40.7 15.3-76.4 41-103.9 74.6-21 25.7-38.5 60.9-46.6 93.7-2.7 11-4.2 19.1-5.8 32.5-1.1 8.7-1 1908.3 0 1918.4.5 4.3 1.1 8.8 1.3 10 .2 1.2 1.1 5.7 1.9 10.1.9 4.4 2.5 11.4 3.6 15.5s2.2 8.2 2.4 9c1.1 5.5 10.7 28.7 16.5 39.8 5.7 11 19.6 33.3 21.9 35.2.3.3 2.2 2.5 4.1 5 4.7 6.2 9.1 11 19 21 28.5 28.9 68.3 51.6 109 62.1 6.3 1.7 13.1 3.2 15 3.5 1.9.2 4.6.6 6 .9 5.5 1.1 7.7 1.5 14 2.2 8.5 1 1907.2 1 1917 0 8.7-.9 13.5-1.5 17-2.3 1.4-.3 3.9-.8 5.5-1.1 23.3-3.6 62.3-19.7 85.5-35.2 30.7-20.5 55-45.7 73.6-76.2 14.5-23.8 27.6-57.6 30.9-79.9.4-2.4.8-4.8 1.1-5.1.2-.4.6-3.1.9-6.1.3-3 .9-6.6 1.3-7.9.4-1.3.8-431.5.9-955.9.1-1006 .3-960.7-4.1-982.6-.2-1.2-.7-3.7-1-5.5-.3-1.9-1.9-8.2-3.5-14.1-8.6-30.4-23.5-59.6-43.6-85.4-6-7.6-25.9-28.3-32.5-33.8-29.4-24.1-60.6-40.3-95.5-49.6-6.3-1.7-12.6-3.3-14.2-3.5-1.5-.2-4.4-.6-6.3-1-17.2-3.3-5.9-3.3-974-3.3-522.2.1-952.6.4-956.5.8z"/></svg>